<mxfile host="app.diagrams.net" modified="2023-11-03T18:09:36.706Z" agent="Mozilla/5.0 (Macintosh; Intel Mac OS X 10_15_7) AppleWebKit/537.36 (KHTML, like Gecko) Chrome/119.0.0.0 Safari/537.36" version="22.0.8" etag="WaqoGvSBnIcHwUvSnxT2" type="github">
  <diagram name="Page-1" id="er6DXPStw4f35O4a6FD7">
    <mxGraphModel>
      <root>
        <mxCell id="0" />
        <mxCell id="1" parent="0" />
      </root>
    </mxGraphModel>
  </diagram>
</mxfile>
